<?xml version="1.0" standalone="no"?>
<!DOCTYPE svg PUBLIC "-//W3C//DTD SVG 1.1//EN" "http://www.w3.org/Graphics/SVG/1.1/DTD/svg11.dtd"><svg t="1552298856658" class="icon" style="" viewBox="0 0 1024 1024" version="1.1" xmlns="http://www.w3.org/2000/svg" p-id="1682" xmlns:xlink="http://www.w3.org/1999/xlink"><defs>
    <style type="text/css"></style>
</defs>
    <path d="M382.197333 588.384a1400.373333 1400.373333 0 0 0 63.136 38.693333 1400.746667 1400.746667 0 0 0 64.506667 35.04 1393.36 1393.36 0 0 0 64.496-35.018666c20.96-12.101333 41.413333-24.618667 61.232-37.466667 1.466667-25.856 2.208-52.192 2.208-78.826667 0-24.106667-0.608-47.973333-1.813333-71.466666a1388.469333 1388.469333 0 0 0-59.189334-36.16 1384.992 1384.992 0 0 0-67.770666-36.672 1397.493333 1397.493333 0 0 0-65.477334 35.525333 1399.626667 1399.626667 0 0 0-61.482666 37.621333c-1.237333 23.861333-1.872 48.218667-1.872 72.890667 0 25.6 0.682667 50.938667 2.026666 75.84z m-65.696-45.637333c-0.202667-10.026667-0.304-20.096-0.304-30.202667 0-77.605333 5.744-151.189333 16.469334-217.125333-113.850667-35.04-195.077333-33.322667-211.68-4.554667-17.84 30.890667 28.586667 110.677333 129.792 199.066667a1073.226667 1073.226667 0 0 0 65.722666 52.816z m28.608-310.976C377.408 92.197333 434.906667 0 508.117333 0c73.872 0 129.642667 89.077333 162.389334 230.517333 136.624-41.194667 244.949333-36.922667 281.749333 26.821334 36.965333 64.026667-11.152 156.597333-115.626667 255.082666 104.117333 97.685333 154.677333 193.770667 117.802667 257.642667-37.354667 64.704-143.253333 68.826667-282.581333 26.304C638.704 936.085333 582.522667 1024 508.453333 1024c-73.605333 0-129.530667-86.794667-162.762666-224.981333-135.477333 40.426667-242.789333 35.797333-279.413334-27.642667-37.12-64.288 11.370667-157.248 116.464-256.048-105.605333-99.04-154.437333-192.224-117.306666-256.533333 37.029333-64.138667 141.658667-68.592 279.674666-27.024z m442.709334 237.946666c86.688-80.778667 125.472-151.642667 108.906666-180.32-12.346667-21.397333-64.389333-29.098667-144.714666-12.821333-51.050667 10.346667-109.12 29.365333-169.962667 55.6a1472.8 1472.8 0 0 1 26.949333 15.184c66.864 38.608 127.381333 80.213333 178.821334 122.357333z m-85.6 15.386667c0.149333 8.533333 0.224 17.104 0.224 25.701333 0 33.333333-1.12 66.24-3.306667 98.405334-2.944 43.093333-7.808 84.624-14.442667 123.68 115.2 35.904 197.685333 34.346667 214.474667 5.264 12.336-21.365333-6.864-70.154667-60.821333-131.370667-35.088-39.808-81.669333-81.418667-136.128-121.68z m-470.730667 73.013333C144.16 639.253333 105.082667 710.56 121.712 739.36c12.352 21.397333 64.346667 29.141333 144.570667 12.928 51.253333-10.352 109.584-29.472 170.682666-55.866667a1488.512 1488.512 0 0 1-23.877333-13.493333c-26.672-15.397333-52.565333-31.445333-77.466667-47.978667-37.408-24.848-72.384-50.677333-104.133333-76.837333zM609.6 251.194667c-26.4-117.402667-68.597333-187.125333-101.477333-187.125334-24.485333 0-56.901333 41.184-82.746667 118.832-16.565333 49.770667-29.093333 110.133333-36.709333 176.565334 7.466667-4.490667 15.002667-8.928 22.597333-13.317334 67.925333-39.210667 135.253333-71.253333 198.336-94.954666z m-202.368 527.082666c26.72 113.829333 68.4 181.573333 101.226667 181.573334 35.306667 0 80.805333-78.32 106.970666-207.930667 5.226667-25.909333 9.6-53.296 13.056-81.802667a1482.4 1482.4 0 0 1-21.872 12.88c-68.298667 39.429333-136 71.594667-199.381333 95.28zM511.76 560a48 48 0 1 1 0-96 48 48 0 0 1 0 96z" fill="#ecf0f1" fill-opacity=".7" p-id="1683"></path>
</svg>